<?xml version="1.0" encoding="UTF-8" standalone="no"?>
<!-- Created with Inkscape (http://www.inkscape.org/) -->

<svg
   version="1.1"
   id="svg1"
   width="225"
   height="225"
   viewBox="0 0 225 225"
   sodipodi:docname="linkedin.png"
   xmlns:inkscape="http://www.inkscape.org/namespaces/inkscape"
   xmlns:sodipodi="http://sodipodi.sourceforge.net/DTD/sodipodi-0.dtd"
   xmlns="http://www.w3.org/2000/svg"
   xmlns:svg="http://www.w3.org/2000/svg">
  <defs
     id="defs1" />
  <sodipodi:namedview
     id="namedview1"
     pagecolor="#505050"
     bordercolor="#eeeeee"
     borderopacity="1"
     inkscape:showpageshadow="0"
     inkscape:pageopacity="0"
     inkscape:pagecheckerboard="0"
     inkscape:deskcolor="#505050">
    <inkscape:page
       x="0"
       y="0"
       width="225"
       height="225"
       id="page2"
       margin="0"
       bleed="0" />
  </sodipodi:namedview>
  <g
     inkscape:groupmode="layer"
     inkscape:label="Image"
     id="g1">
    <path
       style="fill:#fdfdfb;fill-opacity:1"
       d="m 20.3264,223.97087 c -5.860698,-1.18025 -9.420729,-3.226 -13.5308612,-7.77542 C 0.20370927,208.89908 0.5,213.77936 0.5,112.5 0.5,10.533569 0.1441822,16.05351 7.2111879,8.3867144 14.922294,0.02115245 8.5296075,0.5 112.5,0.5 216.47039,0.5 210.07771,0.02115245 217.78881,8.3867144 224.85582,16.05351 224.5,10.533569 224.5,112.5 c 0,75.3662 -0.24782,92.70164 -1.37069,95.88071 -1.86495,5.28005 -7.68836,11.50274 -13.12931,14.0295 -4.45171,2.06737 -5.47112,2.09146 -95,2.24548 -49.775,0.0856 -92.37812,-0.22254 -94.6736,-0.68482 z M 68,139.5 C 68,85 68,85 51,85 34,85 34,85 34,139.5 34,194 34,194 51,194 c 17,0 17,0 17,-54.5 z m 54.1888,21.25 c 0.30079,-32.13759 0.38554,-33.38903 2.5333,-37.40547 3.98553,-7.4532 10.71011,-10.94181 19.46897,-10.10019 5.99772,0.5763 9.48987,2.98755 12.80893,8.84424 2.5,4.41142 2.5,4.41142 2.81047,38.16142 0.31046,33.75 0.31046,33.75 17.25,33.75 C 194,194 194,194 194,156.13649 194,134.88445 193.55792,115.94192 192.99235,112.95965 190.59678,100.32787 183.79168,90.992402 173.16489,85.759685 166.85312,82.651715 166.00872,82.5 155.02251,82.5 c -10.7257,0 -11.93654,0.203282 -17.50975,2.939618 -3.29298,1.61679 -8.13048,5.082862 -10.75,7.702381 C 122,97.904762 122,97.904762 122,91.452381 122,85 122,85 105.5,85 89,85 89,85 89,139.5 c 0,54.5 0,54.5 16.4388,54.5 16.43881,0 16.43881,0 16.75,-33.25 z M 60.020785,69.474604 C 75.852063,61.379925 74.18954,37.508045 57.408823,31.969909 41.057356,26.573438 25.72044,43.781758 32.864982,59.508577 c 2.148815,4.730049 8.050033,10.215367 11.903358,11.064445 1.502413,0.331056 3.18166,0.762175 3.73166,0.958043 1.669041,0.594383 8.839646,-0.68557 11.520785,-2.056461 z"
       id="path1" />
  </g>
</svg>
